<?xml version="1.0" encoding="utf-8"?>
<!-- Generator: Adobe Illustrator 24.2.3, SVG Export Plug-In . SVG Version: 6.00 Build 0)  -->
<svg version="1.1" id="Capa_1" xmlns="http://www.w3.org/2000/svg" xmlns:xlink="http://www.w3.org/1999/xlink" x="0px" y="0px"
	 viewBox="0 0 1308.05 1308.05" style="enable-background:new 0 0 1308.05 1308.05;" xml:space="preserve">
<style type="text/css">
	.st0{fill:#E32886;}
	.st1{fill:#FFFFFF;}
</style>
<g>
	<path class="st0" d="M897.78,1101.27H422.97c-104.26,0-188.78-84.52-188.78-188.78V437.68c0-104.26,84.52-188.78,188.78-188.78
		h474.81c104.26,0,188.78,84.52,188.78,188.78V912.5C1086.56,1016.75,1002.04,1101.27,897.78,1101.27z"/>
	<path class="st1" d="M786.81,599.76c-37.58-34.9-80.09-52.53-126.26-52.53c-41.52,0-79.91,14.05-114.27,41.88V445.94
		c0-8.86-3.85-24.61-29.53-30.33l-5.64-0.18l-1.88,0.18c-25.77,5.73-29.62,21.48-29.62,30.33v273.29
		c0,46.26,12.89,86.89,38.3,120.89l0.54,0.72c41.43,45.1,87.16,67.92,135.75,67.92h10.02c25.86,0,52.89-6.98,80.98-21.21
		c63.62-38.57,95.93-92.26,95.93-159.73C841.13,680.75,822.97,637.79,786.81,599.76z M712.86,837.42
		c-10.12,4.94-23.02,15.39-29.75,25.48c-5.97,8.95-16.21,30.13-20.55,41.59c-8.73-35.54-29.59-55.54-48.46-64.19
		c-44.54-20.46-70.21-55.18-72.78-104.02c-2.57-48.67,18.67-86.37,60.94-110.72c58.14-33.48,132.71-10.64,164.11,49.37
		C797.31,733.89,772.72,808.31,712.86,837.42z"/>
</g>
</svg>
